<svg width="1600" height="500" viewBox="0 0 1600 500" fill="none" xmlns="http://www.w3.org/2000/svg">
<mask id="mask0_89_567" style="mask-type:alpha" maskUnits="userSpaceOnUse" x="1286" y="244" width="202" height="142">
<path d="M1320.76 376.8C1331.42 382.933 1343.42 386 1356.76 386L1365.56 333.6C1359.96 333.6 1355.29 331.867 1351.56 328.4C1348.09 324.933 1346.36 320.533 1346.36 315.2C1346.36 309.867 1348.36 305.733 1352.36 302.8C1356.36 299.867 1361.02 298.4 1366.36 298.4C1370.36 298.4 1374.09 299.067 1377.56 300.4C1381.29 301.467 1384.62 303.067 1387.56 305.2L1428.36 349.6C1433.16 354.667 1438.22 358.933 1443.56 362.4C1449.16 365.867 1455.42 367.6 1462.36 367.6C1470.36 367.6 1476.62 365.067 1481.16 360C1485.69 354.667 1487.96 348.4 1487.96 341.2C1487.96 330 1484.36 318.4 1477.16 306.4C1470.22 294.133 1460.76 283.067 1448.76 273.2C1428 256.134 1411 248.837 1386.76 245.2C1381.42 244.4 1375.96 244 1370.36 244C1354.62 244 1340.36 246.933 1327.56 252.8C1315.02 258.667 1305.02 267.2 1297.56 278.4C1290.36 289.333 1286.76 302.667 1286.76 318.4C1286.76 330.4 1289.82 341.6 1295.96 352C1302.09 362.133 1310.36 370.4 1320.76 376.8Z" fill="black"/>
</mask>
<g mask="url(#mask0_89_567)">
<path d="M1416 143.1C1417.5 184.6 1418 250.6 1418 300.1C1418 335.406 1372.5 386.6 1336.5 352.1C1300.5 317.6 1329 274.6 1348.5 274.6C1368 274.6 1421 267.1 1457 336.1" stroke="#EF4738" stroke-width="73" stroke-linecap="round" stroke-linejoin="round"/>
</g>
<mask id="mask1_89_567" style="mask-type:alpha" maskUnits="userSpaceOnUse" x="1320" y="114" width="132" height="272">
<path d="M1320.76 376.8C1331.42 382.933 1343.42 386 1356.76 386C1374.62 386 1389.29 382.667 1400.76 376C1412.22 369.067 1421.42 360.267 1428.36 349.6C1441.04 335.214 1447.24 292.673 1448.76 273.2C1449.02 271.067 1449.16 268.8 1449.16 266.4C1449.42 260.8 1449.69 253.733 1449.96 245.2C1450.22 236.4 1450.49 227.333 1450.76 218C1451.2 202.72 1451.48 166.833 1451.56 150.8C1451.02 144.933 1449.69 139.2 1447.56 133.6C1445.69 128 1442.36 123.467 1437.56 120C1432.76 116.533 1425.82 114.8 1416.76 114.8C1408.22 114.8 1401.56 116.533 1396.76 120C1391.96 123.2 1388.49 127.467 1386.36 132.8C1384.22 138.133 1382.89 143.733 1382.36 149.6C1382.01 157.067 1382.08 181.44 1385.16 219.2L1385.96 232C1386.22 236.267 1386.49 240.667 1386.76 245.2L1387.56 305.2C1387.02 313.2 1385.29 320.267 1382.36 326.4C1379.42 332.267 1373.82 334.667 1365.56 333.6C1359.96 333.6 1355.29 331.867 1351.56 328.4L1320.76 376.8Z" fill="black"/>
</mask>
<g mask="url(#mask1_89_567)">
<path d="M1416 143.1C1417.5 184.6 1418 250.6 1418 300.1C1418 335.406 1372.5 386.6 1336.5 352.1C1300.5 317.6 1329 274.6 1348.5 274.6C1368 274.6 1421 267.1 1457 336.1" stroke="#EF4738" stroke-width="73" stroke-linecap="round" stroke-linejoin="round"/>
</g>
<mask id="mask2_89_567" style="mask-type:alpha" maskUnits="userSpaceOnUse" x="1282" y="149" width="218" height="71">
<path d="M1329.56 217.6C1344.76 218.667 1363.29 219.2 1385.16 219.2C1387.4 219.202 1429.82 218.401 1450.76 218C1466.76 216.667 1478.89 213.6 1487.16 208.8C1495.42 204 1499.56 195.733 1499.56 184C1499.56 172.8 1495.42 164.8 1487.16 160C1479.16 155.2 1467.29 152.133 1451.56 150.8C1446.8 150.313 1403.44 149.797 1382.36 149.6C1361.02 149.6 1342.89 150.267 1327.96 151.6C1313.29 152.667 1302.09 155.6 1294.36 160.4C1286.62 165.2 1282.76 173.067 1282.76 184C1282.76 195.467 1286.76 203.733 1294.76 208.8C1302.76 213.6 1314.36 216.533 1329.56 217.6Z" fill="black"/>
</mask>
<g mask="url(#mask2_89_567)">
<path d="M1318 183.6L1464.5 184.6" stroke="#EF4738" stroke-width="73" stroke-linecap="round" stroke-linejoin="round"/>
</g>
<mask id="mask3_89_567" style="mask-type:alpha" maskUnits="userSpaceOnUse" x="1183" y="124" width="90" height="264">
<path d="M1216.36 374.8C1223.82 383.333 1232.49 387.6 1242.36 387.6C1249.02 387.6 1254.89 385.067 1259.96 380C1265.02 374.667 1267.56 368 1267.56 360C1267.56 353.6 1266.76 347.733 1265.16 342.4C1263.82 337.067 1262.09 331.067 1259.96 324.4C1258.09 317.733 1256.36 309.467 1254.76 299.6C1253.42 289.467 1252.76 276.533 1252.76 260.8C1252.76 246.4 1254.36 233.867 1257.56 223.2C1261.02 212.267 1264.36 202 1267.56 192.4C1271.02 182.8 1272.76 173.067 1272.76 163.2C1272.76 152.8 1269.96 143.733 1264.36 136C1258.76 128.267 1249.69 124.4 1237.16 124.4C1225.69 124.4 1216.36 128.267 1209.16 136C1202.22 143.467 1196.76 153.333 1192.76 165.6C1189.02 177.6 1186.49 190.667 1185.16 204.8C1183.82 218.933 1183.16 232.533 1183.16 245.6C1183.16 261.867 1184.36 278.4 1186.76 295.2C1189.42 311.733 1193.16 327.067 1197.96 341.2C1203.02 355.067 1209.16 366.267 1216.36 374.8Z" fill="black"/>
</mask>
<g mask="url(#mask3_89_567)">
<path d="M1236.82 160.6C1220.82 198.6 1195.32 268.1 1240.32 352.1" stroke="#EF4738" stroke-width="84" stroke-linecap="round" stroke-linejoin="round"/>
</g>
<mask id="mask4_89_567" style="mask-type:alpha" maskUnits="userSpaceOnUse" x="950" y="108" width="213" height="283">
<path d="M1052.85 390.8C1041.65 390.8 1032.59 388.933 1025.65 385.2C1018.72 381.467 1015.25 375.467 1015.25 367.2C1015.25 359.467 1017.65 353.2 1022.45 348.4C1027.25 343.6 1033.12 341.067 1040.05 340.8C1057.39 339.733 1070.99 337.6 1080.85 334.4C1090.72 330.933 1095.65 324 1095.65 313.6C1095.65 304 1091.79 296.933 1084.05 292.4C1076.59 287.867 1068.05 285.6 1058.45 285.6C1048.85 285.6 1040.99 287.2 1034.85 290.4C1028.99 293.333 1023.65 296.8 1018.85 300.8C1014.05 304.533 1008.85 308 1003.25 311.2C997.92 314.133 990.853 315.6 982.053 315.6C972.72 315.6 964.987 312.8 958.853 307.2C952.987 301.333 950.187 294.133 950.453 285.6C950.72 277.6 952.187 266.133 954.853 251.2C969.5 174.6 982.853 134.4 982.853 134.4C987.12 124.8 992.987 118 1000.45 114C1007.92 110 1014.99 108 1021.65 108C1028.05 108 1034.59 110.133 1041.25 114.4C1047.92 118.667 1051.92 125.333 1053.25 134.4C1055.56 150.1 1048.93 171.6 1039.25 205.6C1038.1 209.655 1036.72 213.6 1035.65 217.6C1034.59 221.333 1033.52 224.8 1032.45 228C1038.05 227.2 1043.92 226.533 1050.05 226C1056.45 225.467 1062.99 225.2 1069.65 225.2C1098.45 225.2 1120.99 232.4 1137.25 246.8C1153.79 260.933 1162.05 280.667 1162.05 306C1162.05 320.4 1158.72 332.933 1152.05 343.6C1145.39 354.267 1136.72 363.067 1126.05 370C1115.39 376.933 1103.65 382.133 1090.85 385.6C1078.05 389.067 1065.39 390.8 1052.85 390.8Z" fill="black"/>
</mask>
<g mask="url(#mask4_89_567)">
<path d="M1019 140.1L980 284.1C1022 255.6 1103 233.2 1125 289.6C1152.5 360.1 1058 366.1 1040 365.1" stroke="#EF4738" stroke-width="75" stroke-linecap="round" stroke-linejoin="round"/>
</g>
<mask id="mask5_89_567" style="mask-type:alpha" maskUnits="userSpaceOnUse" x="908" y="134" width="263" height="72">
<path d="M964.853 204C946.453 202.4 932.453 199.2 922.853 194.4C913.253 189.333 908.453 180.933 908.453 169.2C908.453 154.8 914.72 145.467 927.253 141.2C940.053 136.933 958.586 134.667 982.853 134.4C1004.5 134.162 1009 134.4 1053.25 134.4C1078.05 134.4 1099.25 134.8 1116.85 135.6C1134.45 136.133 1147.79 138.933 1156.85 144C1166.19 148.8 1170.85 157.467 1170.85 170C1170.85 183.067 1165.79 192.133 1155.65 197.2C1145.52 202 1130.85 204.667 1111.65 205.2C1092.45 205.467 1069.12 205.6 1041.65 205.6H1039.25C989 205.6 1003 205.6 964.853 204Z" fill="black"/>
</mask>
<g mask="url(#mask5_89_567)">
<path d="M943.5 168.1L1136.5 171.1" stroke="#EF4738" stroke-width="73" stroke-linecap="round" stroke-linejoin="round"/>
</g>
<mask id="mask6_89_567" style="mask-type:alpha" maskUnits="userSpaceOnUse" x="617" y="120" width="284" height="272">
<path d="M678.741 391.6C668.607 391.6 659.674 387.2 651.941 378.4C644.474 369.6 638.074 358 632.741 343.6C627.674 329.2 623.807 313.467 621.141 296.4C618.474 279.333 617.141 262.4 617.141 245.6C617.141 232 617.807 218 619.141 203.6C620.741 188.933 623.541 175.333 627.541 162.8C631.541 150.267 637.141 140.133 644.341 132.4C651.807 124.667 661.407 120.8 673.141 120.8C683.007 120.8 690.607 122.667 695.941 126.4C701.274 129.867 704.874 134.667 706.741 140.8C708.874 146.667 709.941 153.2 709.941 160.4C709.941 170.8 708.207 180.933 704.741 190.8C701.274 200.4 697.807 210.8 694.341 222C690.874 233.2 689.141 246.267 689.141 261.2C689.141 277.2 690.074 290.267 691.941 300.4C694.074 310.267 696.341 318.4 698.741 324.8C701.407 330.933 703.674 336.667 705.541 342C707.407 347.067 708.341 352.8 708.341 359.2C708.341 369.333 705.674 377.333 700.341 383.2C695.274 388.8 688.074 391.6 678.741 391.6ZM853.941 228C840.607 223.467 826.474 220.8 811.541 220C796.607 219.2 782.874 220.667 770.341 224.4C762.074 226.8 754.207 227.6 746.741 226.8C739.274 226 733.141 223.067 728.341 218C723.541 212.933 721.141 205.333 721.141 195.2C721.141 183.2 725.407 173.467 733.941 166C742.474 158.533 753.541 153.067 767.141 149.6C781.007 145.867 795.407 144 810.341 144C826.074 144 840.741 146.133 854.341 150.4C868.207 154.4 879.274 160.267 887.541 168C896.074 175.467 900.341 184.533 900.341 195.2C900.341 204.267 897.941 211.733 893.141 217.6C888.607 223.2 882.741 226.933 875.541 228.8C868.341 230.667 861.141 230.4 853.941 228ZM811.141 380C795.141 380 780.341 377.867 766.741 373.6C753.407 369.333 742.607 362.933 734.341 354.4C726.074 345.867 721.941 335.067 721.941 322C721.941 315.333 724.074 309.333 728.341 304C732.607 298.667 738.874 296 747.141 296C752.207 296 757.674 297.6 763.541 300.8C769.407 303.733 776.207 306.667 783.941 309.6C791.941 312.533 801.007 314 811.141 314C819.407 314 827.141 312.667 834.341 310C841.807 307.333 848.607 304.8 854.741 302.4C860.874 299.733 866.207 298.4 870.741 298.4C880.341 298.4 887.541 301.2 892.341 306.8C897.407 312.133 899.941 319.067 899.941 327.6C899.941 336.133 897.007 343.733 891.141 350.4C885.274 356.8 877.807 362.267 868.741 366.8C859.674 371.067 849.941 374.4 839.541 376.8C829.407 378.933 819.941 380 811.141 380Z" fill="black"/>
</mask>
<g mask="url(#mask6_89_567)">
<path d="M672.5 159.6C656.5 197.6 631 267.1 676 351.1" stroke="#EF4738" stroke-width="84" stroke-linecap="round" stroke-linejoin="round"/>
<path d="M757.5 193.1C779.167 183.433 817.5 172.6 864.5 194.1" stroke="#EF4738" stroke-width="78" stroke-linecap="round" stroke-linejoin="round"/>
<path d="M753 328.6C768.167 344.1 812.6 365.8 869 328.6" stroke="#EF4738" stroke-width="71" stroke-linecap="round" stroke-linejoin="round"/>
</g>
<mask id="mask7_89_567" style="mask-type:alpha" maskUnits="userSpaceOnUse" x="342" y="110" width="263" height="280">
<path d="M381.322 390C369.055 390 359.589 386.133 352.922 378.4C346.255 370.4 342.922 361.333 342.922 351.2C342.922 339.467 343.855 325.6 345.722 309.6C347.855 293.6 350.922 276.4 354.922 258C358.922 239.333 363.722 220.667 369.322 202C374.922 183.333 381.322 165.6 388.522 148.8C394.655 134.4 401.589 124.4 409.322 118.8C417.322 112.933 425.455 110 433.722 110C441.722 110 448.922 112.667 455.322 118C461.722 123.067 464.922 131.467 464.922 143.2C464.922 149.6 463.455 158.267 460.522 169.2C457.589 179.867 454.255 190.8 450.522 202C446.789 213.2 443.455 222.933 440.522 231.2C444.255 229.6 447.855 228.533 451.322 228C454.789 227.467 458.522 227.2 462.522 227.2C476.655 227.2 487.855 230.667 496.122 237.6C504.655 244.267 510.655 253.333 514.122 264.8C517.855 276 519.722 288.4 519.722 302C519.722 308.933 519.855 314.8 520.122 319.6C520.655 324.4 524.122 326.8 530.522 326.8C535.322 326.8 538.922 325.333 541.322 322.4C543.722 319.2 545.589 315.333 546.922 310.8C548.522 306.267 549.989 302.133 551.322 298.4C557.189 282.4 566.655 274.4 579.722 274.4C585.855 274.4 591.589 276.933 596.922 282C602.255 287.067 604.922 294.667 604.922 304.8C604.922 320 601.589 334 594.922 346.8C588.255 359.6 579.189 369.867 567.722 377.6C556.255 385.333 543.189 389.2 528.522 389.2C512.789 389.2 500.255 386.933 490.922 382.4C481.589 377.6 474.655 371.867 470.122 365.2C465.589 358.267 462.522 351.467 460.922 344.8C459.589 338.133 458.922 332.667 458.922 328.4C458.922 320.4 457.189 314.4 453.722 310.4C450.255 306.4 445.855 304.4 440.522 304.4C435.455 304.4 431.322 306.933 428.122 312C425.189 317.067 422.655 323.467 420.522 331.2C418.389 338.933 416.389 346.933 414.522 355.2C412.655 363.467 408.922 371.333 403.322 378.8C397.989 386.267 390.655 390 381.322 390Z" fill="black"/>
</mask>
<g mask="url(#mask7_89_567)">
<path d="M430.5 145.1C412.5 190.1 377.2 292.9 378 358.1C381.333 339.767 399 301.8 419 284.6C444 263.1 487 247.6 482.5 294.6C478.779 333.467 534.5 418.6 579 303.6" stroke="#EF4738" stroke-width="77" stroke-linecap="round" stroke-linejoin="round"/>
</g>
<mask id="mask8_89_567" style="mask-type:alpha" maskUnits="userSpaceOnUse" x="103" y="122" width="225" height="266">
<path d="M292.622 215.6C285.955 215.6 280.489 215.067 276.222 214C272.222 212.667 267.955 211.2 263.422 209.6C259.155 207.733 253.289 206.267 245.822 205.2C238.355 203.867 227.822 203.2 214.222 203.2C202.222 203.2 192.355 203.733 184.622 204.8C177.155 205.6 170.755 206.667 165.422 208C160.355 209.067 155.422 210.133 150.622 211.2C145.822 212 140.222 212.4 133.822 212.4C124.755 212.4 117.555 209.2 112.222 202.8C107.155 196.133 104.622 188.667 104.622 180.4C104.622 168.4 108.089 158.667 115.022 151.2C121.955 143.467 130.889 137.467 141.822 133.2C152.755 128.933 164.489 126 177.022 124.4C189.822 122.8 202.222 122 214.222 122C227.022 122 239.822 123.067 252.622 125.2C265.689 127.067 277.689 130.267 288.622 134.8C299.822 139.333 308.755 145.6 315.422 153.6C322.089 161.333 325.422 171.2 325.422 183.2C325.422 191.467 322.489 198.933 316.622 205.6C310.755 212.267 302.755 215.6 292.622 215.6ZM214.222 387.6C201.422 387.6 188.489 386.533 175.422 384.4C162.622 382 150.755 378.267 139.822 373.2C128.889 367.867 120.089 361.067 113.422 352.8C106.755 344.533 103.422 334.4 103.422 322.4C103.422 314.133 106.222 306.8 111.822 300.4C117.422 294 124.755 290.8 133.822 290.8C140.489 290.8 146.222 292.267 151.022 295.2C155.822 297.867 160.755 300.933 165.822 304.4C170.889 307.867 177.155 311.067 184.622 314C192.355 316.667 202.222 318 214.222 318C226.755 318 237.022 316.8 245.022 314.4C253.022 311.733 259.689 308.8 265.022 305.6C270.622 302.4 275.689 299.6 280.222 297.2C285.022 294.533 290.355 293.2 296.222 293.2C305.822 293.2 313.289 296.533 318.622 303.2C324.222 309.6 327.022 316.933 327.022 325.2C327.022 336.133 323.689 345.6 317.022 353.6C310.622 361.333 301.955 367.733 291.022 372.8C280.355 377.867 268.222 381.6 254.622 384C241.289 386.4 227.822 387.6 214.222 387.6Z" fill="black"/>
</mask>
<g mask="url(#mask8_89_567)">
<path d="M137 327.1C168 354.1 236.5 368.6 295.5 329.1" stroke="#EF4738" stroke-width="77" stroke-linecap="round"/>
<path d="M142 174.6C174.5 161.1 234 154.1 288.5 176.6" stroke="#EF4738" stroke-width="84" stroke-linecap="round"/>
</g>
</svg>
